<?xml version="1.0" standalone="no"?>
<!DOCTYPE svg PUBLIC "-//W3C//DTD SVG 20010904//EN"
 "http://www.w3.org/TR/2001/REC-SVG-20010904/DTD/svg10.dtd">
<svg version="1.0" xmlns="http://www.w3.org/2000/svg"
 width="512.000000pt" height="512.000000pt" viewBox="0 0 512.000000 512.000000"
 preserveAspectRatio="xMidYMid meet">

<g transform="translate(0.000000,512.000000) scale(0.100000,-0.100000)"
fill="#ffffff" stroke="none">
<path  d="M1855 5114 c-155 -32 -232 -61 -323 -121 -157 -104 -288 -279 -337
-447 -22 -74 -22 -221 0 -301 51 -189 223 -408 443 -565 l91 -65 1 -414 0
-414 40 -38 c37 -35 40 -42 40 -92 0 -30 7 -92 15 -138 71 -380 315 -670 628
-744 77 -18 224 -19 297 -1 174 43 304 128 424 278 131 163 203 353 222 587 5
58 11 81 20 81 8 0 28 13 46 29 l33 29 3 449 3 449 67 39 c38 21 102 73 148
119 66 66 89 98 127 176 144 294 132 570 -33 778 -80 101 -225 189 -380 228
-116 29 -349 27 -450 -4 -95 -30 -203 -83 -282 -138 l-62 -43 -46 42 c-160
150 -419 249 -640 246 -41 -1 -84 -3 -95 -5z m288 -256 c90 -25 213 -88 272
-140 l46 -41 -39 -41 c-110 -114 -230 -285 -238 -338 -6 -43 24 -93 71 -115
54 -26 100 -7 150 59 21 29 57 78 79 108 97 131 269 289 393 364 187 112 420
125 609 36 228 -109 287 -350 154 -626 -95 -197 -309 -311 -690 -370 -69 -10
-204 -18 -395 -21 -321 -6 -331 -8 -360 -69 -22 -47 -14 -92 25 -129 28 -27
38 -29 152 -39 206 -16 624 19 818 69 32 8 63 15 69 15 8 0 11 -88 9 -317 l-3
-318 -652 -3 -653 -2 0 391 0 391 -39 37 c-21 20 -78 63 -127 96 -107 72 -243
206 -302 295 -123 188 -105 373 55 549 154 171 358 225 596 159z"/>
<path d="M1731 1734 c-194 -76 -338 -165 -466 -286 -182 -172 -293 -366 -344
-602 -19 -87 -21 -128 -21 -471 l0 -375 1661 0 1661 0 -5 347 c-5 381 -8 405
-73 602 -108 326 -328 583 -630 735 -145 73 -130 73 -208 5 -434 -380 -1008
-371 -1429 20 l-62 58 -84 -33z"/>
</g>
</svg>


