<?xml version="1.0" standalone="no"?>
<!DOCTYPE svg PUBLIC "-//W3C//DTD SVG 20010904//EN"
 "http://www.w3.org/TR/2001/REC-SVG-20010904/DTD/svg10.dtd">
<svg version="1.0" xmlns="http://www.w3.org/2000/svg"
 width="512.000000pt" height="512.000000pt" viewBox="0 0 512.000000 512.000000"
 preserveAspectRatio="xMidYMid meet">

<g transform="translate(0.000000,512.000000) scale(0.100000,-0.100000)"
fill="#ffffff" stroke="none">
<path d="M1605 5106 c-346 -67 -626 -314 -728 -641 -41 -132 -47 -210 -47
-655 l0 -418 -30 -12 c-37 -15 -107 -90 -126 -135 -20 -48 -18 -151 5 -200 23
-51 96 -118 147 -136 141 -48 300 37 334 181 26 106 -24 221 -118 275 l-52 30
3 455 c4 509 4 512 78 667 96 201 276 352 496 415 62 18 103 22 203 22 150 0
215 -15 350 -82 81 -39 109 -60 190 -142 107 -106 158 -186 194 -300 40 -125
46 -208 46 -633 l0 -402 -50 -27 c-202 -112 -152 -419 76 -468 91 -20 176 10
241 84 67 76 82 179 39 271 -23 50 -78 107 -122 127 l-24 11 0 406 c0 224 -5
446 -11 496 -44 377 -329 701 -699 796 -107 27 -295 34 -395 15z m-630 -1890
c51 -51 39 -117 -27 -149 -33 -16 -40 -17 -71 -3 -41 17 -57 41 -57 89 0 77
100 117 155 63z m1706 11 c9 -7 21 -22 27 -34 51 -95 -70 -183 -148 -107 -36
35 -35 98 3 130 31 27 91 32 118 11z"/>
<path d="M300 3614 c0 -3 -49 -797 -110 -1764 -60 -967 -110 -1772 -110 -1789
l0 -31 1325 0 1325 0 0 80 0 80 -1240 0 -1240 0 0 21 c0 11 45 740 100 1619
55 879 100 1605 100 1614 0 14 17 16 125 16 l125 0 0 80 0 80 -200 0 c-110 0
-200 -3 -200 -6z"/>
<path d="M1130 3540 l0 -80 640 0 640 0 0 80 0 80 -640 0 -640 0 0 -80z"/>
<path d="M2840 3540 l0 -80 125 0 c112 0 125 -2 125 -17 0 -10 7 -139 17 -286
l17 -268 75 7 c42 3 78 8 80 10 4 3 -20 412 -36 632 l-6 82 -198 0 -199 0 0
-80z"/>
<path d="M3168 2676 c-118 -181 -80 -164 -317 -140 -85 8 -157 11 -161 7 -4
-4 -16 -86 -28 -181 -11 -94 -23 -176 -26 -180 -3 -5 -82 -37 -176 -72 -93
-34 -170 -67 -170 -74 0 -6 25 -87 56 -179 l56 -168 -131 -138 -130 -138 50
-49 c28 -27 87 -88 131 -136 l80 -88 -56 -167 c-31 -93 -56 -173 -56 -179 0
-6 78 -39 173 -74 94 -34 173 -63 174 -64 1 -1 12 -82 24 -179 12 -97 25 -181
28 -186 4 -6 74 -3 190 8 l184 17 103 -158 104 -158 156 95 c87 52 162 95 168
95 6 0 81 -43 166 -95 l155 -95 103 158 c100 152 104 157 135 155 18 -2 101
-10 186 -18 85 -8 156 -14 157 -12 1 1 13 85 26 187 l23 184 175 64 c96 36
176 65 177 66 2 2 -24 83 -57 182 l-60 179 103 105 c56 58 116 120 132 137
l29 33 -132 133 -132 133 60 179 c33 99 57 181 53 183 -5 2 -84 31 -178 66
l-170 63 -23 184 c-13 101 -25 185 -27 187 -1 1 -71 -4 -155 -13 -244 -24
-209 -40 -324 140 -55 85 -100 155 -101 155 -1 0 -72 -43 -159 -95 -86 -52
-160 -95 -164 -95 -4 0 -64 34 -132 76 -69 42 -140 85 -157 96 l-33 20 -102
-156z m288 -146 c72 -44 134 -80 137 -80 3 0 65 36 136 80 72 44 133 80 135
80 2 0 42 -58 88 -130 96 -149 68 -137 270 -118 70 6 130 10 132 7 3 -2 13
-71 24 -152 11 -82 24 -152 28 -157 5 -4 73 -31 151 -59 l141 -52 -50 -150
-50 -150 110 -118 111 -118 -50 -49 c-28 -27 -78 -79 -111 -116 l-60 -68 50
-149 50 -149 -145 -53 c-110 -40 -147 -57 -152 -73 -5 -12 -16 -82 -25 -156
-9 -74 -19 -136 -21 -139 -3 -2 -75 3 -160 10 l-156 15 -86 -133 c-77 -120
-87 -131 -105 -122 -11 6 -72 42 -135 81 -70 41 -122 67 -131 63 -9 -3 -71
-40 -139 -82 -68 -41 -125 -74 -126 -72 -2 2 -41 63 -89 135 l-86 130 -128
-13 c-71 -7 -142 -12 -159 -11 l-30 3 -20 154 -20 154 -144 53 c-79 30 -146
56 -149 58 -2 3 17 67 42 143 25 76 46 145 46 153 0 9 -47 62 -105 120 -58 58
-105 109 -105 115 0 6 47 57 105 115 58 58 105 112 105 120 0 9 -20 76 -45
150 -25 74 -44 139 -42 143 1 5 68 33 147 62 l145 52 20 154 20 154 60 0 c33
0 105 -4 161 -9 l101 -8 84 131 c46 72 86 131 88 131 3 0 64 -36 137 -80z"/>
<path d="M3535 1470 l-560 -560 58 -57 57 -58 562 562 563 563 -55 55 c-30 30
-57 55 -60 55 -3 0 -257 -252 -565 -560z"/>
<path d="M3189 1997 c-171 -64 -213 -279 -79 -400 165 -148 414 -28 398 192
-9 122 -101 212 -222 218 -34 2 -77 -3 -97 -10z m136 -172 c50 -49 15 -135
-55 -135 -41 0 -80 39 -80 80 0 41 39 80 80 80 19 0 40 -9 55 -25z"/>
<path d="M3831 1246 c-93 -34 -155 -123 -155 -226 0 -237 301 -327 439 -132
25 37 30 55 33 116 3 48 -1 83 -10 106 -49 117 -189 179 -307 136z m133 -167
c37 -29 37 -89 0 -118 -34 -27 -67 -27 -98 2 -39 34 -42 68 -11 105 32 38 70
42 109 11z"/>
<path d="M1180 1720 l0 -80 80 0 80 0 0 80 0 80 -80 0 -80 0 0 -80z"/>
<path d="M1500 1720 l0 -80 80 0 80 0 0 80 0 80 -80 0 -80 0 0 -80z"/>
<path d="M1827 1793 c-4 -3 -7 -39 -7 -80 l0 -73 80 0 80 0 0 80 0 80 -73 0
c-41 0 -77 -3 -80 -7z"/>
</g>
</svg>
